<svg width="459" height="176" viewBox="0 0 459 176" fill="none" xmlns="http://www.w3.org/2000/svg">
<g clip-path="url(#clip0_18_8)">
<g opacity="0.5">
<path d="M31.0451 161.385C26.3784 158.028 21.8047 154.306 18.7608 149.346C14.6402 142.631 11.5353 135.48 8.36239 128.29C5.56749 121.957 3.07447 115.456 3.00173 108.437C2.91289 99.8643 6.25343 91.6951 12.2634 85.5475C17.3226 80.3725 24.174 79.1225 31.071 80.8844C36.0716 82.1618 42.2285 85.7049 43.7687 90.9857C45.2179 95.9544 43.8616 102.529 41.1981 106.874C39.5057 109.634 37.0726 113.572 33.9386 115.012C32.7773 115.545 35.3897 112.895 36.2637 111.963C38.2699 109.823 40.788 108.319 43.3941 107.016C48.6999 104.363 54.0218 103.509 59.9282 104.058C73.9806 105.364 86.0892 113.127 89.1213 127.58C92.3723 143.077 86.4828 158.738 72.4838 166.758C65.9227 170.517 58.5846 173.288 50.9378 172.39C46.3036 171.846 41.7284 170.679 37.5555 168.592" stroke="#8A7A1A" stroke-width="6" stroke-linecap="round"/>
<path d="M45.9267 90.4693C44.4592 87.1431 42.6719 83.7754 43.1365 80.0321C43.5843 76.4255 45.9103 73.6149 48.3035 71.0417C53.9487 64.9716 62.3296 63.3939 70.2887 64.2989C78.4564 65.2276 86.821 69.3214 92.0155 75.834C94.1123 78.4628 95.5749 81.657 97.26 84.5532C98.7517 87.117 100.105 89.5542 100.98 92.4069C101.433 93.8842 102.427 95.9999 102.427 97.5609C102.427 97.8479 102.259 99.2702 102.685 99.098C106.904 97.3924 109.942 95.3781 114.698 95.0162C121.315 94.5127 127.207 98.1919 130.729 103.684C132.664 106.703 133.685 110.241 134.888 113.592C136.123 117.031 137.724 120.852 137.949 124.545C138.305 130.367 137.002 137.641 132.33 141.635C128.636 144.794 122.276 145.1 117.695 144.309C111.303 143.205 108.537 139.193 105.372 134.014C104.69 132.898 104.109 131.718 103.383 130.63C103.106 130.215 102.96 128.998 102.608 129.351C102.069 129.889 104.607 135.113 104.829 135.809C105.728 138.618 106.478 141.632 106.715 144.58C107.125 149.673 105.203 154.22 99.8434 155.469C95.2495 156.54 90.4226 156.395 85.9186 155.108" stroke="#8A7A1A" stroke-width="6" stroke-linecap="round"/>
<path d="M50.2881 131.617C50.9116 134.02 51.9165 140.789 55.366 141.199C57.7602 141.483 60.2005 139.829 61.3976 137.89C62.9581 135.362 61.4543 131.617 58.3531 131.617" stroke="#8A7A1A" stroke-width="6" stroke-linecap="round"/>
<path d="M71.3818 81.7793C71.8788 84.6193 74.1839 91.4258 78.0567 87.8568C79.66 86.3792 79.3307 84.2908 78.8264 82.3997" stroke="#8A7A1A" stroke-width="6" stroke-linecap="round"/>
<path d="M92.2685 78.3354C92.203 69.0684 93.8595 60.9425 99.7465 53.5626C105.682 46.1218 115.745 42.1851 125.005 41.4079C136.402 40.4513 146.902 43.346 155.866 50.4743C164.572 57.3971 172.012 66.5611 176.536 76.7691C181.193 87.2784 184.781 99.476 181.455 110.983C180.383 114.69 177.897 117.97 175.686 121.042C173.735 123.753 171.626 126.915 168.991 129.072C167.046 130.664 163.835 132.086 161.314 132.248C153.494 132.753 148.461 125.578 145.498 119.277C144.879 117.961 143.888 116.175 143.888 114.667" stroke="#8A7A1A" stroke-width="6" stroke-linecap="round"/>
<path d="M151.431 131.74C149.09 135.696 146.309 138.53 141.968 140.122C140.034 140.832 138.289 141.485 136.343 140.674" stroke="#8A7A1A" stroke-width="6" stroke-linecap="round"/>
<path d="M125.822 72.3793C126.183 74.0916 126.517 79.6578 128.8 80.431C130.081 80.8648 132.206 79.1663 132.804 78.1919C134.504 75.4227 133.016 72.3091 130.587 70.791" stroke="#8A7A1A" stroke-width="6" stroke-linecap="round"/>
<path d="M160.829 50.2951C157.464 50.1587 155.881 49.437 155.125 46.0897C154.244 42.1878 155.192 37.974 156.355 34.2341C159.883 22.8944 175.048 17.8281 185.692 19.3586C191.115 20.1384 197.776 22.8722 200.87 27.6352C204.915 33.8641 206.837 40.8446 208.799 47.9016C210.289 53.2578 212.111 58.5454 212.725 64.0968C213.003 66.6056 213.081 69.1646 213.575 71.6352" stroke="#8A7A1A" stroke-width="6" stroke-linecap="round"/>
<path d="M212.771 53.1132C211.531 48.5316 210.761 44.4682 211.575 39.7477C212.019 37.169 212.516 34.5134 213.241 31.9968C215.106 25.5271 218.561 18.8403 223.978 14.6384C227.757 11.7076 232.582 10.5314 237.288 11.4843C243.872 12.8175 248.858 19.1325 251.705 24.794C255.806 32.9502 257.991 40.8305 259.355 49.8362C260.098 54.7404 260.798 59.7056 260.552 64.6781C260.238 71.011 259.267 77.3223 258.293 83.58C254.949 105.044 244.998 125.587 225.857 136.975C214.295 143.854 200.214 147.803 186.756 145.52C183.173 144.912 178.548 143.054 176.287 140.062C173.738 136.686 173.08 132.377 173.447 128.273C174.486 116.651 186.086 107.545 195.1 101.576C200.383 98.0772 206.138 94.6419 212.436 93.4C215.209 92.8533 219.108 92.2105 221.831 93.3776" stroke="#8A7A1A" stroke-width="6" stroke-linecap="round"/>
<path d="M257.186 100.977C262.432 104.85 267.096 106.886 273.649 106.886C281.899 106.886 289.538 104.438 296.159 99.5334C311.622 88.0787 312.495 68.0144 309.681 50.5699C307.392 36.3811 302.636 20.7397 288.518 14.3729C281.007 10.9855 274.376 11.2133 266.503 13.4934C265.466 13.7936 256.531 17.2085 256.938 17.616" stroke="#8A7A1A" stroke-width="6" stroke-linecap="round"/>
<path d="M276.231 54.2262C276.514 55.4461 277.676 63.9931 280.684 62.8288C282.044 62.3021 283.03 60.2159 283.432 58.9535C284.323 56.1607 282.364 53.629 281.179 51.2578" stroke="#8A7A1A" stroke-width="6" stroke-linecap="round"/>
<path d="M306.151 36.9793C304.762 28.881 303.439 21.6906 308.565 14.5325C316.325 3.69768 331.602 0.860774 343.899 4.50414C358.507 8.83258 375.301 29.2805 361.492 43.09C354.715 49.8666 346.643 50.9501 337.554 50.9501C336.202 50.9501 340.258 50.6945 341.607 50.7776C343.988 50.9241 346.258 51.5677 348.519 52.2929C353.583 53.9175 358.482 56.6112 360.605 61.7669C362.152 65.5253 363.379 70.7253 360.309 74.1607C357.378 77.4406 351.761 76.7588 347.94 76.1812C346.747 76.0009 345.611 75.6647 344.441 75.3927C343.758 75.2338 348.681 74.324 349.319 74.2962C353.823 74.1004 358.609 75.2542 362.945 76.329C366.769 77.2768 370.649 78.5195 373.479 81.4048C378.373 86.3952 376.806 93.2437 373.171 98.628C367.618 106.853 357.861 110.327 348.556 112.229C337.071 114.577 325.858 113.833 316.598 106.069C313.277 103.285 310.111 99.8985 307.395 96.5213C305.863 94.6166 305.581 93.6296 305.929 91.31" stroke="#8A7A1A" stroke-width="6" stroke-linecap="round"/>
<path d="M366.674 24.0476C368.077 18.8278 369.262 13.711 373.24 9.8533C375.886 7.28749 378.864 5.16797 382.603 4.59753C391.718 3.20724 398.201 13.7415 401.779 20.5022C406.854 30.0922 409.578 40.9646 411.055 51.6873C411.207 52.796 412.337 69.889 412.515 69.889" stroke="#8A7A1A" stroke-width="6" stroke-linecap="round"/>
<path d="M411.841 45.1713C415.572 34.2708 420.385 24.2267 428.42 15.8338C430.724 13.4271 433.584 11.0309 436.922 10.3034C439.913 9.65143 442.488 12.0215 444.3 14.111C447.946 18.3154 449.495 23.2718 451.178 28.4801C453.214 34.7793 455.101 40.9383 455.685 47.5682C456.407 55.7632 455.855 64.1356 454.349 72.2117C452.744 80.8202 451.051 89.9807 446.859 97.7665C441.936 106.91 434.297 117.039 423.651 119.726C416.436 121.548 409.538 118.972 404.288 113.946C398.22 108.136 396.308 99.3683 394.426 91.5619C394.085 90.1466 393.441 86.2274 391.617 85.6195" stroke="#8A7A1A" stroke-width="6" stroke-linecap="round"/>
<path d="M395.213 106.967C392.446 110.774 389.565 116.294 385.326 118.752C382.77 120.235 379.789 120.765 376.862 120.85C373.173 120.956 369.436 120.325 366.463 118.016C363.628 115.814 362.811 113.478 362.181 110.113" stroke="#8A7A1A" stroke-width="6" stroke-linecap="round"/>
<path d="M163.974 40.4555C165.549 36.5727 167.174 31.8124 171.62 30.5605C174.102 29.8616 176.674 29.4809 179.202 28.9863" stroke="#8A7A1A" stroke-width="6" stroke-linecap="round"/>
<path d="M16.3868 95.9492C14.4788 99.2346 12.9158 102.453 12.8517 106.324C12.8041 109.198 13.311 112.149 14.0352 114.916C14.5567 116.909 15.1275 119.061 16.0948 120.895C16.9684 122.552 18.2543 123.971 19.4301 125.414" stroke="#8A7A1A" stroke-width="6" stroke-linecap="round"/>
<path d="M129.857 121.033C129.708 125.318 129.029 128.61 126.25 131.999C125.521 132.888 124.611 133.701 123.729 134.446" stroke="#8A7A1A" stroke-width="6" stroke-linecap="round"/>
<path d="M123.479 48.8284C126.008 48.4735 128.596 48.6354 131.129 48.915C134.597 49.2976 138.223 49.7666 141.476 51.0759C144.427 52.2634 147.44 54.0344 149.658 56.3504C150.41 57.1353 151.164 57.9366 151.893 58.7423C152.185 59.0642 152.354 59.3298 152.504 59.7403" stroke="#8A7A1A" stroke-width="6" stroke-linecap="round"/>
<path d="M286.772 97.1763C289.69 95.9744 292.78 94.8736 294.993 92.5221C296.46 90.9631 297.713 89.1133 298.638 87.1848C299.936 84.4815 300.992 81.6233 302.213 78.877" stroke="#8A7A1A" stroke-width="6" stroke-linecap="round"/>
<path d="M326.763 11.7695C320.842 15.3743 313.897 20.0157 312.105 27.182" stroke="#8A7A1A" stroke-width="6" stroke-linecap="round"/>
<path d="M437.637 24.7539C440.061 25.8092 443.01 26.8608 444.734 28.9923C445.852 30.3744 446.151 32.6432 446.53 34.3028C447.363 37.9459 447.982 41.6376 448.714 45.3009" stroke="#8A7A1A" stroke-width="6" stroke-linecap="round"/>
</g>
</g>
<defs>
<clipPath id="clip0_18_8">
<rect width="459" height="176" fill="white"/>
</clipPath>
</defs>
</svg>
