<svg width="76" height="77" viewBox="0 0 76 77" fill="none" xmlns="http://www.w3.org/2000/svg">
<g clip-path="url(#clip0_18_32)">
<path d="M11.183 37.502C8.37303 43.8032 5.4166 50.1543 3.31423 56.7417C2.55885 59.1085 3.13291 59.1349 5.38952 58.8745C10.0822 58.3331 14.6535 57.2585 19.3977 57.2173C21.0837 57.2026 22.7371 57.4767 24.413 57.4767" stroke="#8A7A1A" stroke-width="8" stroke-linecap="round"/>
<path d="M28.3047 3C29.328 9.90706 30.5419 16.4928 32.7435 23.1188C35.4611 31.2977 36.2077 39.6971 37.7876 48.1232C38.9858 54.5138 40.4652 60.8233 42.0247 67.1322C42.5582 69.2905 42.6659 71.8044 44.1288 73.5599" stroke="#8A7A1A" stroke-width="8" stroke-linecap="round"/>
<path d="M49.5762 21.9372C55.7197 22.1412 61.8638 22.2514 67.9944 21.6778C68.4705 21.6333 72.9137 20.846 72.7502 21.9084C72.5185 23.4148 71.202 24.8105 70.3579 25.9725C68.494 28.5384 66.7967 31.1943 65.0544 33.8413C63.7649 35.8003 61.7668 37.5053 60.7308 39.5772" stroke="#8A7A1A" stroke-width="8" stroke-linecap="round"/>
</g>
<defs>
<clipPath id="clip0_18_32">
<rect width="76" height="77" fill="white"/>
</clipPath>
</defs>
</svg>
