<svg width="302" height="271" viewBox="0 0 302 271" fill="none" xmlns="http://www.w3.org/2000/svg">
<g opacity="0.5">
<path d="M83.8011 98.6758C89.3645 92.0245 94.9177 83.9505 104.038 82.1075C111.071 80.6864 119.501 83.1164 124.332 88.5846C131.308 96.4795 133.967 107.701 133.059 117.906C131.963 130.22 125.464 141.763 116.167 149.747C108.921 155.969 97.8799 160.38 88.2436 156.794C79.6766 153.606 73.6906 145.296 71.3336 136.759C70.0536 132.123 70.6279 127.483 71.8501 122.914C73.3897 117.157 75.7442 111.948 79.0022 106.99C83.4678 100.193 89.4691 92.195 97.69 89.7531" stroke="#8A7A1A" stroke-width="6" stroke-linecap="round"/>
<path d="M103.909 117.08C102.98 118.352 101.358 120.327 102.244 121.919C102.842 122.994 104.366 122.593 105.331 122.242C107.36 121.504 109.017 119.317 108.464 117.17" stroke="#8A7A1A" stroke-width="6" stroke-linecap="round"/>
<path d="M133.527 118.663C134.831 112.023 136.472 104.646 141.513 99.6822C146.369 94.9004 154.21 93.9995 160.045 97.1342C167.262 101.012 171.793 107.105 176.327 113.76C181.795 121.785 185.598 130.22 185.738 140.179C185.878 150.186 182.866 160.355 177.126 168.636C174.655 172.2 171.675 176.143 167.782 178.217C163.863 180.305 159.738 181.16 155.396 180.654C146.322 179.598 137.136 176.126 129.787 170.706C126.346 168.169 123.902 164.622 121.235 161.327C119.283 158.916 117.635 157.032 117.053 153.907" stroke="#8A7A1A" stroke-width="6" stroke-linecap="round"/>
<path d="M153.075 139.781C152.395 140.806 150.332 143.252 151.333 144.495C151.896 145.193 153.052 145.282 153.911 145.154C155.442 144.925 156.71 144.005 157.096 142.441" stroke="#8A7A1A" stroke-width="6" stroke-linecap="round"/>
<path d="M184.084 123.799C185.156 121.368 186.182 118.633 188.461 117.068C190.303 115.804 192.381 114.944 194.428 114.075C200.072 111.68 205.845 113.224 211.257 115.469C217.455 118.041 224.876 120.594 228.906 126.35C232.616 131.651 231.308 137.502 227.811 142.474C224.865 146.664 220.254 148.801 215.206 148.86C214.044 148.874 212.883 148.664 211.728 148.682C210.599 148.699 213.871 149.245 214.169 149.322C218.527 150.455 223.891 152.413 226.767 156.028C229.002 158.837 229.368 162.253 226.685 164.848C223.75 167.687 220.377 168.813 216.311 168.678C214.708 168.625 213.191 168.344 211.763 167.597C211.5 167.46 210.193 166.802 211.106 166.82C216.251 166.918 222.107 169.306 226.263 172.263C230.993 175.628 232.785 180.191 231.498 185.897C230.312 191.155 225.919 196.964 221.438 199.836C215 203.962 207.973 203.985 200.697 202.148C193.753 200.396 187.75 197.076 182.506 192.211C179.678 189.587 176.721 186.497 174.774 183.135" stroke="#8A7A1A" stroke-width="6" stroke-linecap="round"/>
<path d="M230.074 132.136C233.395 130.091 236.896 127.447 240.755 126.477C243.147 125.876 245.776 125.566 248.242 125.561C252.776 125.552 257.789 127.125 261.547 129.66C266.103 132.735 269.777 136.889 270.972 142.34C272.009 147.068 271.546 153.427 269.213 157.694C267.059 161.634 263.342 163.632 259.505 165.642C256.945 166.984 254.788 167.509 251.917 167.464C250.327 167.439 252.797 168.177 253.249 168.322C256.271 169.287 259.563 170.659 262.057 172.645C268.273 177.594 269.576 185.299 268.568 192.842C267.604 200.058 266.2 211.279 258.643 214.704C252.506 217.486 243.955 213.842 241.752 207.385C240.152 202.692 240.943 197.718 241.215 192.893C241.319 191.036 242.317 188.496 242.017 186.745" stroke="#8A7A1A" stroke-width="6" stroke-linecap="round"/>
<path d="M239.827 204.42C235.442 206.614 230.909 208.762 225.81 208.032C222.99 207.628 221.308 205.719 219.762 203.469" stroke="#8A7A1A" stroke-width="6" stroke-linecap="round"/>
<path d="M248.244 147.41C247.397 149.572 246.887 151.283 248.891 152.79C249.689 153.39 250.846 153.97 251.865 153.476C253.725 152.573 252.821 150.845 251.9 149.748" stroke="#8A7A1A" stroke-width="6" stroke-linecap="round"/>
<path d="M80.6477 93.5301C79.2016 87.9583 77.9643 82.1686 75.2359 77.0576C73.7662 74.3046 71.7614 71.7664 69.6561 69.4794C64.7147 64.1117 58.0993 61.4711 50.7779 61.5588C42.6406 61.6563 34.65 66.307 28.9283 71.8817C22.1956 78.4413 18.2987 87.4863 16.0845 96.4792C12.7225 110.134 14.234 126.75 28.475 133.39C35.8353 136.822 42.9153 136.44 50.6871 134.811C55.1512 133.875 59.6164 132.925 63.9936 131.646C64.3732 131.535 64.9772 131.483 64.5676 131.037C62.678 128.981 61.2735 126.321 59.7 124.025C57.14 120.288 54.3207 116.746 51.8156 112.973C50.323 110.725 48.9184 108.43 47.2639 106.292C47.0302 105.99 46.0689 105.229 46.5442 105.011C50.565 103.166 54.5761 101.201 58.6517 99.4904C63.613 97.4083 68.8867 95.9121 74.0659 94.501C76.0608 93.9575 77.8545 93.7023 79.6264 92.5905" stroke="#8A7A1A" stroke-width="6" stroke-linecap="round"/>
</g>
</svg>
