<svg width="187" height="173" viewBox="0 0 187 173" fill="none" xmlns="http://www.w3.org/2000/svg">
<g opacity="0.4">
<path d="M104.019 4.21984C98.8794 6.21789 94.0276 8.8853 88.7477 10.5278C83.212 12.2499 78.3051 14.1031 73.2655 17.0331C68.239 19.9556 62.7248 21.5545 57.5749 24.1768C56.9896 24.4748 58.4399 27.4608 58.6789 28.0066C59.1629 29.1121 56.6447 29.3123 55.8597 29.5145C54.7683 29.7958 53.4493 29.827 53.7316 31.0986C54.2101 33.2543 55.3525 35.479 56.2344 37.493C57.2422 39.7948 58.3119 42.1171 59.486 44.338C61.4951 48.1379 63.4302 51.9669 65.4433 55.7634C66.2296 57.2462 67.297 58.8223 67.6018 60.4991C67.7655 61.4002 68.1934 62.3597 68.163 63.2832C68.1198 64.5953 64.5613 65.8677 63.687 66.3371C62.7359 66.8477 61.7181 67.2412 60.7294 67.6741C59.9768 68.0036 60.7724 68.3818 61.1227 68.9116C61.5456 69.5512 63.2613 71.4635 62.4437 72.2677C62.063 72.6421 58.8662 74.5873 58.8709 75.0103C58.8885 76.5829 61.2131 77.7545 61.0132 79.5638C60.8724 80.8384 57.5005 81.9644 56.5233 82.3923C55.3565 82.9032 56.7867 84.7382 57.127 85.5154C57.5737 86.5355 57.7349 87.4544 56.6127 88.0234C55.5342 88.5703 51.9782 89.7183 51.6024 90.9957C51.3556 91.8346 52.7982 93.9448 53.1418 94.7296C53.456 95.447 53.7509 96.0073 53.664 96.7943C53.5586 97.7482 49.4516 99.4345 48.6629 99.8361C47.2073 100.577 45.2909 101.42 43.6725 101.642C43.1147 101.719 41.2195 97.6396 40.7676 96.9705C39.7501 95.4641 36.5636 100.04 35.2773 97.1021C34.7936 95.9974 34.3023 93.9329 33.1246 93.3001C32.2158 92.8119 29.7792 94.8596 28.9223 95.2348C28.4874 95.4252 27.968 95.7981 27.4908 95.6722C27.1974 95.5948 26.6746 92.6218 26.5723 92.2661C25.8344 89.7003 25.1157 87.8751 23.4562 85.8036C22.9082 85.1194 21.9405 85.1433 21.172 85.3835C20.5977 85.563 18.047 86.0462 17.7848 86.7088C17.5843 87.2155 18.5399 88.9558 18.7254 89.3899C19.7042 91.6813 20.7087 93.9649 21.7248 96.2401C23.4657 100.138 26.0781 103.547 27.5923 107.557C28.9296 111.099 29.8038 114.651 30.8422 118.275C30.9491 118.648 31.4142 121.417 31.953 120.86C32.8012 119.983 33.5561 119.338 34.678 118.846C35.7243 118.388 36.3963 120.544 36.8251 121.231C36.9926 121.499 37.9539 123.646 38.2913 123.513C39.6004 122.996 40.8552 122.415 42.1707 122.004C43.3175 121.646 44.5619 125.117 45.0307 125.822C45.6653 126.778 46.0316 126.279 47.0148 126.09C49.327 125.646 51.027 124.204 52.7631 126.329C53.5272 127.265 54.5131 128.563 55.0522 129.619C55.3731 130.248 60.3068 126.96 61.055 126.612C62.5201 125.93 62.5116 128.753 63.2977 129.796C64.0959 130.855 64.601 130.672 66.0238 130.401C66.5939 130.293 69.3294 129.084 69.7031 129.937C70.7492 132.326 71.56 134.799 72.6864 137.163C74.4038 140.767 76.1873 144.31 77.7908 147.972C78.8054 150.29 82.8884 147.918 84.4302 147.243C85.9456 146.58 87.0348 145.972 86.2828 144.254C85.8421 143.248 85.4015 142.242 84.9609 141.235C84.5551 140.308 83.4815 141.788 82.9233 142.033C82.0817 142.401 81.716 142.156 81.4594 141.306C81.0553 139.967 80.2972 138.496 80.1141 137.119C80.0696 136.784 82.5571 135.944 83.0307 135.737C84.0148 135.306 83.1201 133.357 83.0082 132.633C82.8344 131.508 82.4109 131.463 83.6308 130.929C84.9713 130.342 86.403 130.284 87.7384 129.699C89.0282 129.134 87.6264 126.67 87.2938 125.728C86.5436 123.604 85.9079 122.853 88.1269 121.428C89.1066 120.799 90.4978 119.921 91.5006 120.751C92.8809 121.893 93.2211 123.71 94.002 125.252C94.2964 125.834 95.2067 125.489 95.5199 126.102C95.6157 126.29 96.9724 125.801 97.2412 125.77C98.8315 125.583 100.676 131.466 101.605 132.927C101.982 133.519 102.113 134.339 102.829 134.074C103.685 133.758 104.319 135.017 104.704 135.547C104.854 135.752 106.171 138.248 106.519 138.14C109.242 137.288 111.506 136.015 114.085 134.827C115 134.405 115.357 134.418 115.097 133.311C114.789 131.998 114.1 130.756 113.83 129.447C113.582 128.245 113.121 128.241 111.884 128.637C110.935 128.941 109.753 129.875 108.757 129.733C107.801 129.596 106.911 126.39 106.597 125.671C104.999 122.021 103.153 118.376 101.297 114.852C100.977 114.244 99.7735 111.958 100.003 111.242C100.445 109.863 101.779 108.63 103.077 107.845C103.814 107.399 104.599 107.491 104.557 106.428C104.513 105.3 103.829 104.088 103.38 103.062C102.877 101.912 107.674 100.586 108.591 99.9178C110.311 98.6649 106.204 95.4561 107.092 94.7251C108.085 93.9076 111.152 93.5215 111.092 92.1109C111.023 90.4929 110.166 88.4701 109.523 87.0013C108.759 85.2564 107.995 83.5115 107.231 81.7665C106.74 80.6456 103.795 75.8874 104.709 74.697C105.656 73.462 107.062 72.7237 108.224 71.7269C109.471 70.6575 111.647 72.8266 112.324 73.677C113.081 74.6285 112.845 75.1881 114.161 74.577C114.561 74.3909 117.126 72.9962 117.016 72.7164C116.332 70.963 115.109 69.4964 114.309 67.8422C113.972 67.1444 113.744 65.9776 112.728 66.0727C110.504 66.2811 108.369 67.2982 106.341 68.1539C104.935 68.7476 103.37 68.7927 101.968 69.3111C101.847 69.3559 99.1935 62.1646 98.8413 61.2965C98.571 60.6305 98.0115 59.4546 98.0516 58.7177C98.1109 57.6261 100.858 56.7307 101.654 56.2359C103.186 55.2818 104.907 53.8825 106.627 53.3008C109.681 52.2679 112.494 50.7587 115.321 49.2205C115.914 48.8981 119.631 47.3829 119.494 46.6362C119.305 45.612 118.91 44.4775 118.383 43.5667C117.637 42.276 113.253 44.658 112.37 45.1687C110.156 46.4487 107.985 48.0588 105.502 48.8174C104.4 49.1542 103.396 49.3712 102.322 49.8413C100.982 50.4282 100.174 48.8995 99.6652 47.8909C99.2717 47.1108 98.7986 46.3719 98.4486 45.5727C98.1124 44.8046 99.9732 44.1028 100.522 43.7181C104.227 41.1205 108.087 38.7932 112.501 37.7156C115.077 37.0866 117.261 36.2382 119.641 35.0523C121.224 34.2636 123.017 33.3434 124.383 32.2185C125.338 31.4319 123.343 27.856 123.029 27.1408C121.337 23.2744 119.486 19.4835 117.79 15.6114C116.999 13.8044 116.047 12.0661 115.261 10.2702C114.863 9.36102 114.426 7.34864 113.619 6.73884C111.931 5.46212 110.157 7.38311 108.296 7.63902C106.627 7.86836 106.162 5.18781 105.6 3.90625" stroke="#8A7A1A" stroke-width="6" stroke-linecap="round"/>
<path d="M68.7969 33.9513C69.3601 34.9788 69.8019 36.1137 70.3625 37.1228C70.5319 37.4277 70.6126 37.4028 71.0271 37.3637C72.0541 37.2668 74.658 37.2682 74.658 35.7133C74.658 35.0688 74.2932 34.541 73.9354 34.0316C73.596 33.5485 73.2946 32.9328 72.8917 32.5061C72.5464 32.1406 72.2054 32.4493 71.7141 32.6399C70.9659 32.9302 70.1527 33.1931 69.4392 33.5499" stroke="#8A7A1A" stroke-width="6" stroke-linecap="round"/>
<path d="M32.2373 169.592C42.6308 165.704 53.4954 162.898 64.0438 159.406C78.9246 154.48 93.298 148.107 107.336 141.206C119.712 135.121 132.229 128.673 145.049 123.573C146.809 122.873 154.26 121.317 154.692 119.156" stroke="#8A7A1A" stroke-width="6" stroke-linecap="round"/>
<path d="M167.869 112.113C174.036 111.155 178.524 108.556 184 105.979" stroke="#8A7A1A" stroke-width="6" stroke-linecap="round"/>
</g>
</svg>
