<svg width="902" height="308" viewBox="0 0 902 308" fill="none" xmlns="http://www.w3.org/2000/svg">
<g clip-path="url(#clip0_18_160)">
<path d="M753.934 32.2871C758.394 47.0363 761.642 62.8294 770.605 75.6341" stroke="#8A7A1A" stroke-width="6" stroke-linecap="round"/>
<path d="M793.945 118.146C811.766 143.393 826.551 172.622 850.537 192.753C867.198 206.736 883.096 222.508 898.145 238.184" stroke="#8A7A1A" stroke-width="6" stroke-linecap="round"/>
<path d="M160.283 34.9961C153.46 49.2163 146.202 63.3289 140.133 77.8959" stroke="#8A7A1A" stroke-width="6" stroke-linecap="round"/>
<path d="M130.383 101.945C119.693 128.309 111.861 155.582 106.694 183.592C105.123 192.108 103.405 200.724 102.505 209.339C101.722 216.836 101.854 224.02 99.833 231.295" stroke="#8A7A1A" stroke-width="6" stroke-linecap="round"/>
<path d="M231.782 10.2969C227.465 24.135 225.863 37.51 222.682 51.3912C220.929 59.0425 219.029 65.7033 215.532 72.6967" stroke="#8A7A1A" stroke-width="6" stroke-linecap="round"/>
<path d="M208.383 109.096C199.769 131.711 189.708 154.476 184.188 178.141C182.045 187.328 180.419 196.674 178.483 205.91C175.959 217.947 173.316 230.048 172.633 242.346" stroke="#8A7A1A" stroke-width="6" stroke-linecap="round"/>
<path d="M302.632 97.3965L299.382 124.696" stroke="#8A7A1A" stroke-width="6" stroke-linecap="round"/>
<path d="M292.882 169.547C285.206 200.49 278.338 231.815 269.627 262.497C268.785 265.46 267.527 268.173 266.232 270.947" stroke="#8A7A1A" stroke-width="6" stroke-linecap="round"/>
<path d="M379.98 49.9473C382.324 60.2987 385.83 71.075 385.83 81.7972" stroke="#8A7A1A" stroke-width="6" stroke-linecap="round"/>
<path d="M388.433 118.846C389.468 173.103 389.514 230.941 367.633 281.996" stroke="#8A7A1A" stroke-width="6" stroke-linecap="round"/>
<path d="M479.432 47.9961C482.44 72.9659 485.535 97.866 483.657 123.035C483.368 126.896 483.252 129.778 481.382 133.145" stroke="#8A7A1A" stroke-width="6" stroke-linecap="round"/>
<path d="M481.381 190.346C477.707 216.89 473.685 242.198 465.781 267.732C462.028 279.856 458.821 292.879 452.781 304.096" stroke="#8A7A1A" stroke-width="6" stroke-linecap="round"/>
<path d="M586.037 42.7109C588.37 49.2298 591.628 56.0425 592.774 62.9218" stroke="#8A7A1A" stroke-width="6" stroke-linecap="round"/>
<path d="M600.123 99.668C602.33 116.373 606.701 134.406 604.988 151.386C604.321 158.007 603.457 164.596 602.845 171.223C601.587 184.828 600 198.431 598.558 212.019C596.405 232.303 590.976 253.122 593.386 273.605" stroke="#8A7A1A" stroke-width="6" stroke-linecap="round"/>
<path d="M677.904 28.623C680.249 38.0384 681.779 47.94 685.866 56.7959" stroke="#8A7A1A" stroke-width="6" stroke-linecap="round"/>
<path d="M694.441 95.9941C699.301 125.424 702.756 155.88 713.768 183.881C719.096 197.431 726.799 209.74 734.251 222.16" stroke="#8A7A1A" stroke-width="6" stroke-linecap="round"/>
<path d="M104.119 3C100.077 11.5582 96.1008 20.137 92.1855 28.7505" stroke="#8A7A1A" stroke-width="6" stroke-linecap="round"/>
<path d="M70.8307 77.7402C65.5275 116.709 61.0347 158.304 42.7074 193.792C37.9784 202.95 33.9216 212.464 29.0297 221.532C25.2193 228.595 20.8559 235.587 16.0846 242.048C12.1471 247.381 6.89652 251.38 3 256.738" stroke="#8A7A1A" stroke-width="6" stroke-linecap="round"/>
</g>
<defs>
<clipPath id="clip0_18_160">
<rect width="902" height="308" fill="white"/>
</clipPath>
</defs>
</svg>
