<svg width="1672" height="452" viewBox="0 0 1672 452" fill="none" xmlns="http://www.w3.org/2000/svg">
<g clip-path="url(#clip0_18_110)">
<path d="M764.764 179.939C767.952 204.2 768.905 226.766 768.905 250.99C768.905 260.905 768.905 270.908 768.905 280.706" stroke="#8A7A1A" stroke-width="6" stroke-linecap="round"/>
<path d="M757.579 135.531C758.232 141.229 759.027 146.949 759.379 152.679C759.412 153.211 759.455 153.808 759.321 154.343" stroke="#00C7FF" stroke-opacity="0.5" stroke-width="6" stroke-linecap="round"/>
<path d="M823.986 139.154C824.665 155.534 825.234 171.891 825.234 188.28C825.234 193.557 826.066 198.785 826.066 204.039" stroke="#00C7FF" stroke-opacity="0.5" stroke-width="6" stroke-linecap="round"/>
<path d="M829.394 229.828C827.355 247.533 826.241 265.977 822.739 283.484" stroke="#8A7A1A" stroke-width="6" stroke-linecap="round"/>
<path d="M897.191 118.773C898.419 131.248 900.564 143.984 900.08 156.577C899.936 160.313 899.309 164.015 899.271 167.761C899.259 168.93 900.562 175.11 899.271 175.756" stroke="#00C7FF" stroke-opacity="0.5" stroke-width="6" stroke-linecap="round"/>
<path d="M896.36 201.129C897.504 217.124 898.407 232.643 897.099 248.592C896.567 255.076 896.068 261.558 895.62 268.048C895.531 269.336 894.537 276.541 895.944 277.245" stroke="#8A7A1A" stroke-width="6" stroke-linecap="round"/>
<path d="M965.82 113.367C966.654 119.36 967.816 125.541 967.9 131.622C967.917 132.815 968.147 134.001 967.484 134.996" stroke="#00C7FF" stroke-opacity="0.5" stroke-width="6" stroke-linecap="round"/>
<path d="M967.767 164.535C968.125 175.979 968.568 187.334 968.153 198.755C968.074 200.938 968.05 203.333 967.358 205.408" stroke="#8A7A1A" stroke-width="6" stroke-linecap="round"/>
<path d="M968.176 229.523C968.448 242.144 969.22 254.82 969.22 267.444C969.22 269.729 969.301 272.742 968.585 274.892" stroke="#8A7A1A" stroke-width="6" stroke-linecap="round"/>
<path d="M1043.69 220.705C1046.33 229.7 1050.27 238.555 1051.9 247.819C1052.95 253.718 1053.33 259.694 1055.23 265.401" stroke="#8A7A1A" stroke-width="6" stroke-linecap="round"/>
<path d="M1013.62 115.848C1015.24 127.729 1016.51 139.028 1020.4 150.31C1021.62 153.841 1022.91 157.337 1024.15 160.861C1026.56 167.731 1028.72 174.037 1032.57 180.247C1036.18 186.059 1035.88 193.822 1039.59 199.399" stroke="#00C7FF" stroke-opacity="0.5" stroke-width="6" stroke-linecap="round"/>
<path d="M1084.88 154.814C1085.18 158.109 1084.61 164.06 1086.64 167.101" stroke="#00C7FF" stroke-opacity="0.5" stroke-width="6" stroke-linecap="round"/>
<path d="M1091.55 186.059C1100.03 206.272 1106.62 227.027 1112.26 248.196" stroke="#8A7A1A" stroke-width="6" stroke-linecap="round"/>
<path d="M1151.69 196.164C1156.99 210.554 1162.66 224.851 1167.71 239.331C1169.2 243.612 1170.24 248.021 1171.66 252.322C1172.6 255.159 1173.63 257.996 1174.09 260.961C1174.22 261.81 1174.43 262.448 1174.94 263.129" stroke="#8A7A1A" stroke-width="6" stroke-linecap="round"/>
<path d="M1186.12 131.201C1192.94 148.952 1201.27 166.087 1208.15 183.824C1210.54 189.969 1211.83 196.413 1213.82 202.676C1214.65 205.296 1216.71 208.527 1218.69 210.512" stroke="#00C7FF" stroke-opacity="0.5" stroke-width="6" stroke-linecap="round"/>
<path d="M1230.31 234.59C1231.77 239.49 1233.19 244.395 1234.56 249.319" stroke="#8A7A1A" stroke-width="6" stroke-linecap="round"/>
<path d="M1261.82 159.184C1267.31 169.893 1273.51 180.073 1279.56 190.441C1282.61 195.65 1285.58 200.809 1288.23 206.232C1292.41 214.786 1297.44 222.907 1300.83 231.827" stroke="#00C7FF" stroke-opacity="0.5" stroke-width="6" stroke-linecap="round"/>
<path d="M1313.39 252.23L1320.21 266.692" stroke="#8A7A1A" stroke-width="6" stroke-linecap="round"/>
<path d="M1310.57 115.652C1321.73 129.478 1331.92 143.63 1341.91 158.277C1346.38 164.836 1349.67 172.206 1353.56 179.121" stroke="#00C7FF" stroke-opacity="0.5" stroke-width="6" stroke-linecap="round"/>
<path d="M1377.26 203.625C1378.8 205.993 1384.09 211.655 1384.09 214.873" stroke="#8A7A1A" stroke-width="6" stroke-linecap="round"/>
<path d="M1398.95 241.787C1408.9 254.673 1418.39 267.248 1422.25 283.163" stroke="#8A7A1A" stroke-width="6" stroke-linecap="round"/>
<path d="M1399.3 122.928C1405.13 127.181 1412.24 130.883 1416.57 136.825" stroke="#00C7FF" stroke-opacity="0.5" stroke-width="6" stroke-linecap="round"/>
<path d="M1442.25 158.723C1454.39 170.864 1467.56 184.351 1474.26 200.413" stroke="#8A7A1A" stroke-width="6" stroke-linecap="round"/>
<path d="M1491.81 102.203C1506.79 120.56 1523.21 138.133 1537.26 157.233C1544.88 167.607 1551.75 177.877 1561.53 186.383" stroke="#00C7FF" stroke-opacity="0.5" stroke-width="6" stroke-linecap="round"/>
<path d="M1483.47 225.01C1493.29 238.189 1503.97 250.74 1512.37 264.901C1517.77 274.001 1522.56 283.59 1526.39 293.451" stroke="#8A7A1A" stroke-width="6" stroke-linecap="round"/>
<path d="M686.643 157.527C687.711 163.003 688.762 168.481 689.79 173.965" stroke="#00C7FF" stroke-opacity="0.5" stroke-width="6" stroke-linecap="round"/>
<path d="M693.638 199.846L695.736 213.486" stroke="#8A7A1A" stroke-width="6" stroke-linecap="round"/>
<path d="M694.688 240.066C697.114 253.926 701.076 268.415 700.01 282.618C699.862 284.601 699.405 286.419 698.883 288.331" stroke="#8A7A1A" stroke-width="6" stroke-linecap="round"/>
<path d="M622.144 283.247C621.231 266.672 619.901 250.04 619.901 233.428C619.901 228.861 620.063 224.258 619.801 219.696C619.567 215.608 619.186 211.392 618.106 207.434" stroke="#8A7A1A" stroke-width="6" stroke-linecap="round"/>
<path d="M619.9 164.816L620.349 177.826" stroke="#00C7FF" stroke-opacity="0.5" stroke-width="6" stroke-linecap="round"/>
<path d="M553.06 143.732C552.048 150.791 550.638 157.733 549.47 164.742C549.336 165.544 549.021 166.239 549.021 167.059" stroke="#00C7FF" stroke-opacity="0.5" stroke-width="6" stroke-linecap="round"/>
<path d="M531.527 244.219C530.188 253.262 528.92 262.333 527.041 271.285C526.654 273.126 526.965 275.323 526.144 276.967" stroke="#8A7A1A" stroke-width="6" stroke-linecap="round"/>
<path d="M547.676 190.387L544.536 206.537" stroke="#8A7A1A" stroke-width="6" stroke-linecap="round"/>
<path d="M442.256 291.322C444.096 278.39 445.378 265.17 448.885 252.543C451.123 244.486 453.763 236.549 455.938 228.469C459.823 214.04 465.508 200.538 470.069 186.35" stroke="#8A7A1A" stroke-width="6" stroke-linecap="round"/>
<path d="M481.283 154.948L492.498 142.387" stroke="#00C7FF" stroke-opacity="0.5" stroke-width="6" stroke-linecap="round"/>
<path d="M384.938 219.439C395.349 191.19 406.104 163.244 421.26 137.126C431.513 119.458 444.243 103.518 455.046 86.2324" stroke="#00C7FF" stroke-opacity="0.5" stroke-width="6" stroke-linecap="round"/>
<path d="M375.709 249C374.017 255.121 372.13 260.99 369.996 266.917" stroke="#8A7A1A" stroke-width="6" stroke-linecap="round"/>
<path d="M297.295 275.159C304.22 255.731 311.497 236.453 319.007 217.26" stroke="#8A7A1A" stroke-width="6" stroke-linecap="round"/>
<path d="M332.926 193.322C343.777 176.284 354.491 159.093 365.494 142.166C368.508 137.529 371.884 133.209 375.793 129.299" stroke="#00C7FF" stroke-opacity="0.5" stroke-width="6" stroke-linecap="round"/>
<path d="M274.209 125.053C269.507 132.644 265.214 141.37 259.359 148.2" stroke="#00C7FF" stroke-opacity="0.5" stroke-width="6" stroke-linecap="round"/>
<path d="M245.383 167.852C234.783 185.038 224.7 202.39 214.423 219.728C209.382 228.232 206.857 237.401 202.922 246.369C197.946 257.714 194.934 269.68 189.917 280.969" stroke="#8A7A1A" stroke-width="6" stroke-linecap="round"/>
<path d="M210.881 88.3652C200.109 100.643 190.043 113.191 182.444 127.575C179.56 133.034 175.822 138.144 173.515 143.88C172.151 147.271 171.324 151.032 168.953 153.877" stroke="#00C7FF" stroke-opacity="0.5" stroke-width="6" stroke-linecap="round"/>
<path d="M153.667 195.805C148.105 211.928 143.262 227.257 140.565 244.017C138.531 256.657 136.238 269.237 134.014 281.844" stroke="#8A7A1A" stroke-width="6" stroke-linecap="round"/>
<path d="M146.746 51.127C143.621 54.7887 140.005 58.4129 137.328 62.4288" stroke="#00C7FF" stroke-opacity="0.5" stroke-width="6" stroke-linecap="round"/>
<path d="M122.259 87.8594C108.591 111.413 83.1755 137.194 68.4961 171.501C23.9961 275.501 86.3954 345.687 82 359.501" stroke="#8A7A1A" stroke-width="6" stroke-linecap="round"/>
<path d="M70.1494 19.0324L80.162 3.82812" stroke="#00C7FF" stroke-opacity="0.5" stroke-width="6" stroke-linecap="round"/>
<path d="M1665.5 380C1672 343.5 1665.5 262.5 1654.5 196.5C1645.84 144.588 1628.42 118.545 1620 108.5C1611.54 98.4194 1593.48 86.0199 1583.31 77.6973C1581.55 76.2612 1567.85 66.9443 1568.24 66.5547" stroke="#8A7A1A" stroke-width="6" stroke-linecap="round"/>
<path d="M1543.98 46.9016C1535.74 41.4923 1527.55 36.6647 1518.97 31.9844" stroke="#00C7FF" stroke-opacity="0.5" stroke-width="6" stroke-linecap="round"/>
<path d="M30.0002 449C12.0011 323.5 -30.004 207.5 52.8063 40.7773" stroke="#8A7A1A" stroke-width="6" stroke-linecap="round"/>
</g>
<defs>
<clipPath id="clip0_18_110">
<rect width="1672" height="452" fill="white"/>
</clipPath>
</defs>
</svg>
