<svg width="106" height="94" viewBox="0 0 106 94" fill="none" xmlns="http://www.w3.org/2000/svg">
<g opacity="0.3">
<path d="M65.3991 4.15039C57.8471 9.22299 50.562 14.5492 42.7571 19.2456C33.0629 25.0787 23.2004 30.6607 13.867 37.0688C10.4837 39.3917 7.1685 42.0387 4.2161 44.9002C3.1314 45.9515 5.13566 48.0805 5.64621 48.981C9.43652 55.6663 13.3023 62.2704 16.896 69.0666C19.3341 73.6776 22.1495 78.565 25.6691 82.4582C27.8759 84.8994 31.081 88.7429 34.7931 88.6983C41.768 88.6147 49.168 85.6411 55.7654 83.6754C65.0543 80.9077 74.2738 77.9933 83.4713 74.9337C84.8302 74.4817 101.678 68.9713 101.031 67.6171C95.414 55.866 90.6018 43.6822 84.6941 32.0835C81.0608 24.9501 76.1756 18.3009 70.2717 12.8459" stroke="#8A7A1A" stroke-width="6" stroke-linecap="round"/>
<path d="M51.5273 58.1739C56.8123 55.2823 62.1554 52.1089 67.9221 50.2656" stroke="#8A7A1A" stroke-width="6" stroke-linecap="round"/>
<path d="M58.367 56.9727C60.608 59.4827 62.3878 62.0869 63.9854 65.019C64.609 66.1636 65.2434 67.0888 64.9019 68.45C64.225 71.148 59.6912 75.2678 56.7646 73.5342" stroke="#8A7A1A" stroke-width="6" stroke-linecap="round"/>
<path d="M82.3824 48.7637C79.1851 48.9461 76.007 49.053 74.0224 51.8737C73.1145 53.1639 72.1744 55.1195 72.5264 56.7393C73.1303 59.5183 79.4108 58.4729 81.2823 58.6063C83.1104 58.7365 90.6795 59.5704 89.1253 63.0819C87.8312 66.0056 82.9334 67.1673 80.0303 66.9604" stroke="#8A7A1A" stroke-width="6" stroke-linecap="round"/>
</g>
</svg>
