<svg width="190" height="394" viewBox="0 0 190 394" fill="none" xmlns="http://www.w3.org/2000/svg">
<g clip-path="url(#clip0_18_57)">
<path d="M187 15C188.657 15 190 13.6569 190 12C190 10.3431 188.657 9 187 9C185.343 9 184 10.3431 184 12C184 13.6569 185.343 15 187 15Z" fill="#8A7A1A"/>
<path d="M135 3C135 4.65685 128.657 8 127 8C125.343 8 124 6.65685 124 5C124 3.34315 130.343 0 132 0C133.657 0 135 1.34315 135 3Z" fill="#8A7A1A"/>
<path d="M175.601 15.375C158.68 20.3236 144.796 24.813 130.998 36.3714C115.468 49.3803 95.9943 65.6887 88.2671 85.1172C82.5111 99.5894 78.9614 113.033 82.6491 128.416C87.6503 149.278 99.874 167.495 107.448 187.376C113.111 202.242 109.489 220.791 105.007 235.441C100.395 250.521 93.4342 267.796 81.5141 278.569C68.6875 290.16 53.8667 299.349 41.1102 310.914C19.727 330.302 3.94772 354.014 14.212 383.097" stroke="black" stroke-width="20" stroke-linecap="round"/>
<path d="M116.512 11C84.2883 28.0473 50.7618 55.2408 44.1471 93.1253C39.6453 118.908 40.1363 146.83 53.2267 170.302C61.4442 185.037 78.0663 200.497 72.2031 218.924C67.3878 234.058 57.7995 244.285 47.2342 255.787C42.7821 260.634 35.0474 263.944 31.5264 269.225" stroke="black" stroke-width="20" stroke-linecap="round"/>
<path d="M187 15C188.657 15 190 13.6569 190 12C190 10.3431 188.657 9 187 9C185.343 9 184 10.3431 184 12C184 13.6569 185.343 15 187 15Z" fill="#8A7A1A"/>
<path d="M135 3C135 4.65685 128.657 8 127 8C125.343 8 124 6.65685 124 5C124 3.34315 130.343 0 132 0C133.657 0 135 1.34315 135 3Z" fill="#8A7A1A"/>
<path d="M175.601 15.375C158.68 20.3236 144.796 24.813 130.998 36.3714C115.468 49.3803 95.9943 65.6887 88.2671 85.1172C82.5111 99.5894 78.9614 113.033 82.6491 128.416C87.6503 149.278 99.874 167.495 107.448 187.376C113.111 202.242 109.489 220.791 105.007 235.441C100.395 250.521 93.4342 267.796 81.5141 278.569C68.6875 290.16 53.8667 299.349 41.1102 310.914C19.727 330.302 3.94772 354.014 14.212 383.097" stroke="#8A7A1A" stroke-width="6" stroke-linecap="round"/>
<path d="M116.512 11C84.2883 28.0473 50.7618 55.2408 44.1471 93.1253C39.6453 118.908 40.1363 146.83 53.2267 170.302C61.4442 185.037 78.0663 200.497 72.2031 218.924C67.3878 234.058 57.7995 244.285 47.2342 255.787C42.7821 260.634 35.0474 263.944 31.5264 269.225" stroke="#8A7A1A" stroke-width="6" stroke-linecap="round"/>
</g>
<defs>
<clipPath id="clip0_18_57">
<rect width="190" height="394" fill="white"/>
</clipPath>
</defs>
</svg>
