<svg width="222" height="169" viewBox="0 0 222 169" fill="none" xmlns="http://www.w3.org/2000/svg">
<g opacity="0.3">
<path d="M147.302 95.3578C149.698 91.0026 152.339 86.8818 155.216 82.8173C159.691 76.4951 164.339 70.2086 169.267 64.2302C174.353 58.059 179.901 52.4834 185.749 47.0388C189.879 43.1933 194.418 39.5768 199.521 37.0769C203.302 35.2244 209.491 33.1754 211.49 38.4435C212.372 40.7679 211.457 43.476 210.38 45.5766C208.458 49.3208 205.177 52.3788 202.219 55.2931C194.107 63.2828 185.699 70.9663 177.611 78.9831C171.635 84.9069 165.111 90.2638 159.099 96.1569C157.385 97.8372 155.633 99.4563 153.698 100.88C152.756 101.573 151.978 102.14 150.778 102.178C149.452 102.219 148.597 101.765 147.893 100.609C147.391 99.7831 147.335 98.6039 146.697 97.8961" stroke="#8A7A1A" stroke-width="6" stroke-linecap="round"/>
<path d="M148.905 104.537C149.355 106.941 149.288 108.722 148.532 111.08C147.633 113.886 145.784 116.196 143.324 117.751C141.118 119.146 138.761 120.077 136.188 120.544C133.85 120.968 131.614 121.427 129.251 120.984C126.235 120.418 122.954 118.635 120.927 116.305C120.039 115.285 119.502 113.93 118.927 112.718C118.379 111.564 117.987 110.436 118.056 109.146C118.189 106.655 119.808 104.585 122.308 104.198C123.381 104.032 124.531 104.53 125.499 104.941C126.55 105.387 127.469 105.442 128.585 105.231C132.121 104.561 133.447 100.767 136.543 99.3189C138.73 98.2954 141.08 97.5185 143.47 97.1554C145.047 96.9158 146.554 97.2176 148.085 97.0449" stroke="#8A7A1A" stroke-width="6" stroke-linecap="round"/>
<path d="M72.6552 135.154C67.1784 137.129 61.6098 136.761 55.9071 136.014C48.5606 135.051 40.8767 133.28 34.6658 129.124C26.4927 123.656 20.5515 114.913 17.3523 105.711C13.9893 96.039 14.6519 84.6424 16.5433 74.7499C20.6191 53.4314 42.6572 43.657 62.3606 41.2407C71.8136 40.0815 81.9186 41.5452 90.1241 46.4886C97.0302 50.6492 102.854 57.21 104.481 65.2932C105.904 72.3595 104.459 78.6552 100.634 84.7329C97.642 89.4878 92.3775 92.8405 87.6163 95.6342C82.3273 98.7376 70.0522 104.726 75.8109 112.609C77.9661 115.559 81.4527 117.289 84.2695 119.541C86.9376 121.674 88.0248 123.966 87.9584 127.404C87.8078 135.198 78.7207 136.677 72.7286 137.099" stroke="#8A7A1A" stroke-width="6" stroke-linecap="round"/>
<path d="M78.4969 55.4879C73.1977 54.5455 65.2423 55.7203 64.4845 62.1239C64.1812 64.6864 64.2792 67.8381 66.4211 69.674C68.8241 71.7337 72.1573 72.2279 75.2412 72.1128C80.2884 71.9243 85.1367 70.5466 85.3276 64.8258C85.4982 59.7114 81.9643 56.6134 77.181 55.5764" stroke="#8A7A1A" stroke-width="6" stroke-linecap="round"/>
<path d="M50.1539 58.8418C45.7454 61.2468 41.1014 63.9779 42.3083 69.6675C43.2684 74.1942 49.1665 76.8675 53.5203 75.5896C58.102 74.2448 60.3287 70.6309 58.2629 66.2497C57.0421 63.6605 54.5037 60.1173 51.158 60.898" stroke="#8A7A1A" stroke-width="6" stroke-linecap="round"/>
<path d="M29.2903 76.7539C26.8808 80.1495 23.6415 83.9635 25.9709 88.1791C28.1194 92.0676 31.8357 93.0158 35.4469 90.4338C38.3657 88.3468 38.6384 84.3419 37.7855 81.1283C37.3123 79.3454 35.7126 76.3449 33.6971 77.7841" stroke="#8A7A1A" stroke-width="6" stroke-linecap="round"/>
<path d="M31.6679 105.922C29.8694 108.752 28.93 112.463 30.6808 115.583C32.3484 118.554 36.3114 118.553 39.1631 117.512C43.2228 116.032 43.3976 113.536 41.4462 110.038C40.3579 108.087 38.4501 106.841 36.1681 107.124" stroke="#8A7A1A" stroke-width="6" stroke-linecap="round"/>
<path d="M73.3221 122.285C71.7943 122.121 70.8055 121.647 70.4002 123.141C70.1134 124.199 70.0136 125.21 70.1491 126.301C70.382 128.176 71.8903 129.16 73.8472 129.204C75.491 129.241 78.267 128.632 77.9846 126.618C77.7983 125.29 75.9779 124.368 75.4118 123.163" stroke="#8A7A1A" stroke-width="6" stroke-linecap="round"/>
<path d="M74.063 60.6315C75.0288 60.6873 78.8996 60.3036 79.7785 61.1739C80.3904 61.7798 77.6844 64.1522 77.4573 64.3474C75.9592 65.6348 72.1357 68.4758 70.1472 66.8663C66.5281 63.9368 75.0564 56.1166 77.8484 61.6527C80.0641 66.0461 70.5388 67.9705 73.1471 62.1666C74.205 59.8125 77.605 58.1843 79.7595 59.9876C82.3067 62.1195 80.5584 65.8899 78.2136 67.3404C75.0732 69.2831 66.931 64.6798 71.0927 60.7314C73.2491 58.6856 77.4841 58.01 79.5147 60.5241C82.234 63.8909 80.1561 67.763 76.7454 69.3848C74.1282 70.6294 71.379 70.5191 70.6821 67.2612C69.832 63.2877 71.2327 59.3915 75.3362 58.3827C78.3203 57.649 82.0135 59.6581 83.2021 62.6069C84.5173 65.8697 78.6607 67.9557 76.4979 67.8522C73.9254 67.7291 70.4753 66.4233 70.5455 63.2668C70.6136 60.203 72.8322 56.5893 76.1162 57.2713C79.1103 57.8931 81.452 60.6138 79.773 63.7814C77.9861 67.1526 73.7429 69.3616 70.1005 68.3185C66.9337 67.4117 68.4326 63.8222 70.0919 62.1219C72.3558 59.802 77.3481 59.4803 79.5341 62.0876C81.2516 64.1363 78.1328 66.2513 76.373 66.3369C74.7288 66.4168 70.4065 65.3993 71.952 62.7601C73.5088 60.1018 77.2176 59.3858 79.8055 60.4749C83.0428 61.8373 77.4418 63.1039 76.5224 63.1552C75.5067 63.2118 71.0049 63.4017 72.1152 61.0554C72.6854 59.8504 73.8973 58.9408 74.8384 58.0651C75.9597 57.0218 76.3669 56.8037 75.8636 58.7233C75.4852 60.1664 75.0941 63.4879 73.1608 63.6436C71.3166 63.7922 71.0519 60.819 71.2837 59.47C71.9519 55.5811 77.4615 57.131 76.6395 60.9631" stroke="#8A7A1A" stroke-width="6" stroke-linecap="round"/>
<path d="M71.1246 62.524C72.2962 61.0914 73.5172 58.8966 75.5283 59.3326C76.8984 59.6296 78.1934 60.4766 77.1339 62.0382C75.877 63.8909 71.4296 65.9078 69.4321 64.4897C67.1295 62.8549 69.2191 60.5128 70.9961 59.7868C73.5234 58.7542 75.77 60.7513 73.4133 63.1106C72.8776 63.6469 70.8264 64.9315 70.6429 63.3495C70.3917 61.1835 73.3574 60.3828 74.8235 60.334C75.6703 60.3058 73.1323 60.2436 72.2868 60.1984C72.135 60.1903 71.1725 60.2965 71.2325 59.9321C71.4844 58.4046 72.8154 57.3995 73.3009 56.0742" stroke="#8A7A1A" stroke-width="6" stroke-linecap="round"/>
<path d="M48.7257 68.423C51.024 66.6921 53.2834 64.0602 55.8741 66.7076C57.5196 68.3891 56.4345 70.2488 55.0944 71.7493C54.2733 72.6687 53.0038 73.1956 52.253 71.8971C51.175 70.033 51.6013 67.4753 53.0086 65.8829C56.0096 62.487 61.3698 68.9703 57.9364 71.5912C56.0181 73.0556 53.2317 72.8893 51.3765 71.437C49.9248 70.3006 47.3496 67.4776 48.5886 65.502C51.024 61.6188 60.9717 64.2539 58.5498 69.0513C56.556 73.0008 47.7478 74.8349 48.3727 68.5281C48.5765 66.4703 49.5527 64.0971 51.9934 63.7519C54.1332 63.4492 57.1569 65.697 56.7565 67.8706C56.2508 70.6148 53.34 72.5586 50.5741 72.8406C48.3165 73.0708 45.5949 71.1614 46.002 68.8044C46.9185 63.4987 56.196 60.9217 58.1598 67.0054C58.9046 69.3128 55.5158 70.7751 53.7379 71.1292C51.2357 71.6276 48.2666 71.6614 46.2934 69.8532C42.5584 66.4306 48.7895 58.6908 53.4673 60.1421C59.2192 61.9265 53.7106 67.2963 50.2537 67.8641C49.8373 67.9325 48.903 68.0722 49.2576 67.4079C50.6039 64.8856 53.9992 63.0081 56.9253 64.3047C59.0275 65.2362 58.8759 67.2818 57.0495 68.2789C55.1562 69.3124 52.7791 69.4902 50.7413 68.696C49.1947 68.0933 49.9785 66.8912 51.0174 66.1691C53.0262 64.7729 55.9758 64.9225 57.7455 66.6319C59.9842 68.7944 54.8295 70.0239 54.2412 67.6019" stroke="#8A7A1A" stroke-width="6" stroke-linecap="round"/>
<path d="M31.2703 83.8241C32.8278 82.5885 35.8028 79.2526 36.5598 82.8458C37.0731 85.2819 34.5059 89.003 32.2681 89.7511C29.7192 90.6033 28.3177 87.2593 28.1922 85.2567C28.0669 83.2585 29.2421 78.7231 31.7645 78.4496C33.6382 78.2464 36.4783 79.9872 36.772 81.9745C37.0515 83.8662 35.1786 85.6804 33.3138 85.2887C27.5001 84.0676 32.3639 73.7801 37.2505 79.9931C39.0649 82.3001 38.3623 86.4295 35.9382 88.0874C33.2002 89.9599 31.8159 87.1039 31.2071 84.6193C30.8658 83.2261 30.4631 79.8981 32.4215 79.3253C34.9058 78.5987 36.8137 82.144 36.1247 84.2095C35.5956 85.7956 32.7733 87.3401 31.2587 86.3663C29.1345 85.0005 29.9922 82.0828 31.4048 80.5319C32.6984 79.1116 35.099 79.8445 36.0212 81.3039C36.7055 82.387 34.6864 81.1452 34.4039 80.9653" stroke="#8A7A1A" stroke-width="6" stroke-linecap="round"/>
<path d="M35.8672 112.87C36.1896 112.485 38.8372 108.445 39.596 110.462C40.281 112.283 37.4092 113.487 36.0239 113.127C34.5392 112.742 31.5168 110.495 33.488 108.956C35.857 107.107 37.9604 108.781 39.8396 110.289" stroke="#8A7A1A" stroke-width="6" stroke-linecap="round"/>
<path d="M39.0445 116.332C37.1414 115.344 36.2452 114.441 35.6053 112.387C35.439 111.853 34.8078 109.703 35.4325 109.036C36.0887 108.336 36.941 110.269 36.942 110.619C36.9435 111.101 36.1462 112.366 35.8586 111.349C35.307 109.399 36.4603 107.394 38.6802 107.308C40.066 107.254 40.9268 108.676 40.8618 109.894C40.7767 111.487 39.0054 112.565 37.5365 112.868C36.7565 113.029 35.3947 112.869 34.939 112.099C34.2582 110.948 35.8111 109.58 36.4775 108.819" stroke="#8A7A1A" stroke-width="6" stroke-linecap="round"/>
</g>
</svg>
