<svg width="397" height="453" viewBox="0 0 397 453" fill="none" xmlns="http://www.w3.org/2000/svg">
<g clip-path="url(#clip0_18_105)">
<path d="M54.9795 17.252C40.6936 34.4443 22.5212 50.541 16.2301 72.274C13.6185 81.2958 11.1418 89.3693 10.4068 98.7782C8.96736 117.202 11.0931 140.197 20.9104 156.358C30.9216 172.838 49.7185 188.291 67.1159 195.978C86.6726 204.62 112.178 212.914 126.111 229.993C141.218 248.511 147.923 271.842 150.982 295.247C152.945 310.261 155.775 325.973 160.833 340.255C166.142 355.244 173.396 373.413 182.766 386.297C211.077 425.225 250.155 447.957 299.232 440.775C332.337 435.93 360.529 416.879 393.166 410.515C426.233 404.068 458.594 410.41 489.931 420.856" stroke="black" stroke-width="20" stroke-linecap="round"/>
<path d="M124.361 10C103.231 34.0368 68.1146 58.299 76.5772 94.0297C79.8638 107.907 91.323 121.602 103.353 128.915C122.576 140.599 147.016 138.61 168.389 136.861C189.823 135.107 218.578 130.556 237.453 143.664C255.015 155.86 257.447 174.53 265.862 192.427C275.693 213.336 292.872 232.633 316.584 236.075C366.259 243.286 413.389 205.93 449.432 177.134C475.343 156.433 501.559 136.08 529.38 117.976C557.343 99.7797 586.309 83.2223 614.172 64.8588" stroke="black" stroke-width="20" stroke-linecap="round"/>
<path d="M54.9795 17.252C40.6936 34.4443 22.5212 50.541 16.2301 72.274C13.6185 81.2958 11.1418 89.3693 10.4068 98.7782C8.96736 117.202 11.0931 140.197 20.9104 156.358C30.9216 172.838 49.7185 188.291 67.1159 195.978C86.6726 204.62 112.178 212.914 126.111 229.993C141.218 248.511 147.923 271.842 150.982 295.247C152.945 310.261 155.775 325.973 160.833 340.255C166.142 355.244 173.396 373.413 182.766 386.297C211.077 425.225 250.155 447.957 299.232 440.775C332.337 435.93 360.529 416.879 393.166 410.515C426.233 404.068 458.594 410.41 489.931 420.856" stroke="#8A7A1A" stroke-width="6" stroke-linecap="round"/>
<path d="M124.361 10C103.231 34.0368 68.1146 58.299 76.5772 94.0297C79.8638 107.907 91.323 121.602 103.353 128.915C122.576 140.599 147.016 138.61 168.389 136.861C189.823 135.107 218.578 130.556 237.453 143.664C255.015 155.86 257.447 174.53 265.862 192.427C275.693 213.336 292.872 232.633 316.584 236.075C366.259 243.286 413.389 205.93 449.432 177.134C475.343 156.433 501.559 136.08 529.38 117.976C557.343 99.7797 586.309 83.2223 614.172 64.8588" stroke="#8A7A1A" stroke-width="6" stroke-linecap="round"/>
<path d="M142.001 265.118C147.658 247.274 158.399 230.641 173.336 218.983C185.832 209.231 200.584 207.431 215.535 204.645" stroke="#8A7A1A" stroke-width="6" stroke-linecap="round"/>
<path d="M228.158 214.453C228.925 219.383 229.648 224.312 230.331 229.252" stroke="#8A7A1A" stroke-width="6" stroke-linecap="round"/>
<path d="M241.699 211.525C245.366 213.995 249.055 217.121 253.35 218.434" stroke="#8A7A1A" stroke-width="6" stroke-linecap="round"/>
<path d="M241.126 197.587C244.898 194.675 248.606 191.645 252.381 188.752" stroke="#8A7A1A" stroke-width="6" stroke-linecap="round"/>
<path d="M229.313 188.769L221.99 175" stroke="#8A7A1A" stroke-width="6" stroke-linecap="round"/>
</g>
<defs>
<clipPath id="clip0_18_105">
<rect width="397" height="453" fill="white"/>
</clipPath>
</defs>
</svg>
