<svg width="909" height="909" viewBox="0 0 909 909" fill="none" xmlns="http://www.w3.org/2000/svg">
<path d="M667.298 147C681.105 147 692.298 135.807 692.298 122C692.298 108.193 681.105 97 667.298 97C653.491 97 642.298 108.193 642.298 122C642.298 135.807 653.491 147 667.298 147Z" fill="#47BBB9"/>
<path d="M605.298 189C619.105 189 630.298 177.807 630.298 164C630.298 150.193 619.105 139 605.298 139C591.491 139 580.298 150.193 580.298 164C580.298 177.807 591.491 189 605.298 189Z" fill="#47BBB9"/>
<path d="M243 794.78C256.807 794.78 268 783.587 268 769.78C268 755.973 256.807 744.78 243 744.78C229.193 744.78 218 755.973 218 769.78C218 783.587 229.193 794.78 243 794.78Z" fill="#47BBB9"/>
<path d="M181 837C194.807 837 206 825.807 206 812C206 798.193 194.807 787 181 787C167.193 787 156 798.193 156 812C156 825.807 167.193 837 181 837Z" fill="#47BBB9"/>
<path d="M463 691C601.071 691 713 579.071 713 441C713 302.929 601.071 191 463 191C324.929 191 213 302.929 213 441C213 579.071 324.929 691 463 691Z" fill="white"/>
<path d="M375.367 529L435.127 351.4H490.807L550.567 529H507.127L496.807 496.6H429.127L418.807 529H375.367ZM440.647 461.08H485.527L462.967 391.24L440.647 461.08Z" fill="black"/>
</svg>
