<svg width="2435" height="909" viewBox="0 0 2435 909" fill="none" xmlns="http://www.w3.org/2000/svg">
<path d="M581.298 134C595.105 134 606.298 122.807 606.298 109C606.298 95.1929 595.105 84 581.298 84C567.491 84 556.298 95.1929 556.298 109C556.298 122.807 567.491 134 581.298 134Z" fill="#D8A612"/>
<path d="M519.298 176C533.105 176 544.298 164.807 544.298 151C544.298 137.193 533.105 126 519.298 126C505.491 126 494.298 137.193 494.298 151C494.298 164.807 505.491 176 519.298 176Z" fill="#D8A612"/>
<path d="M157 781.78C170.807 781.78 182 770.587 182 756.78C182 742.973 170.807 731.78 157 731.78C143.193 731.78 132 742.973 132 756.78C132 770.587 143.193 781.78 157 781.78Z" fill="#D8A612"/>
<path d="M95 824C108.807 824 120 812.807 120 799C120 785.193 108.807 774 95 774C81.1929 774 70 785.193 70 799C70 812.807 81.1929 824 95 824Z" fill="#D8A612"/>
<path d="M753.54 505V350.34H802.446L834.423 425.58L867.654 350.34H914.888V505H879.149V406.143L850.934 469.888H817.494L789.279 405.725V505H753.54ZM983.352 507.09C970.812 507.09 960.153 504.443 951.375 499.148C942.597 493.853 935.839 486.817 931.102 478.039C926.504 469.261 924.205 459.786 924.205 449.615C924.205 439.444 926.504 429.969 931.102 421.191C935.839 412.413 942.597 405.377 951.375 400.082C960.153 394.787 970.812 392.14 983.352 392.14C996.031 392.14 1006.76 394.787 1015.54 400.082C1024.32 405.377 1031 412.413 1035.6 421.191C1040.34 429.969 1042.71 439.444 1042.71 449.615C1042.71 459.786 1040.34 469.261 1035.6 478.039C1031 486.817 1024.32 493.853 1015.54 499.148C1006.76 504.443 996.031 507.09 983.352 507.09ZM983.352 478.248C990.737 478.248 996.449 475.461 1000.49 469.888C1004.67 464.175 1006.76 457.418 1006.76 449.615C1006.76 441.812 1004.67 435.124 1000.49 429.551C996.449 423.838 990.737 420.982 983.352 420.982C976.107 420.982 970.394 423.838 966.214 429.551C962.034 435.124 959.944 441.812 959.944 449.615C959.944 457.418 962.034 464.175 966.214 469.888C970.394 475.461 976.107 478.248 983.352 478.248ZM1051.96 505V346.16H1087.7V409.905H1088.75C1090.14 407.676 1092.02 405.168 1094.39 402.381C1096.9 399.594 1100.17 397.226 1104.21 395.275C1108.39 393.185 1113.55 392.14 1119.68 392.14C1128.59 392.14 1135.7 394.16 1141 398.201C1146.43 402.242 1150.33 407.397 1152.7 413.667C1155.07 419.798 1156.25 426.137 1156.25 432.686V505H1120.51V439.374C1120.51 434.637 1119.26 430.457 1116.75 426.834C1114.24 423.072 1110.13 421.191 1104.42 421.191C1098.15 421.191 1093.76 423.281 1091.25 427.461C1088.88 431.502 1087.7 435.96 1087.7 440.837V505H1051.96ZM1211.51 392.14C1218.75 392.14 1224.6 393.324 1229.06 395.693C1233.66 398.062 1237.07 400.5 1239.3 403.008C1241.67 405.377 1243 406.84 1243.27 407.397H1244.95V394.23H1280.69V505H1244.95V491.833H1243.27C1243 492.39 1241.67 493.923 1239.3 496.431C1237.07 498.939 1233.66 501.377 1229.06 503.746C1224.6 505.975 1218.75 507.09 1211.51 507.09C1203.43 507.09 1196.39 505.488 1190.4 502.283C1184.41 498.939 1179.39 494.55 1175.35 489.116C1171.31 483.543 1168.31 477.342 1166.36 470.515C1164.41 463.688 1163.44 456.721 1163.44 449.615C1163.44 442.509 1164.41 435.542 1166.36 428.715C1168.31 421.888 1171.31 415.757 1175.35 410.323C1179.39 404.75 1184.41 400.361 1190.4 397.156C1196.39 393.812 1203.43 392.14 1211.51 392.14ZM1222.79 420.773C1217.64 420.773 1213.32 422.236 1209.83 425.162C1206.35 427.949 1203.77 431.571 1202.1 436.03C1200.43 440.349 1199.59 444.878 1199.59 449.615C1199.59 454.352 1200.43 458.95 1202.1 463.409C1203.77 467.728 1206.35 471.351 1209.83 474.277C1213.32 477.064 1217.64 478.457 1222.79 478.457C1227.95 478.457 1232.2 477.064 1235.54 474.277C1239.02 471.351 1241.6 467.728 1243.27 463.409C1245.09 458.95 1245.99 454.352 1245.99 449.615C1245.99 444.878 1245.09 440.349 1243.27 436.03C1241.6 431.571 1239.02 427.949 1235.54 425.162C1232.2 422.236 1227.95 420.773 1222.79 420.773ZM1291.55 505V394.23H1327.29V409.069H1328.55C1331.05 404.61 1334.68 400.709 1339.41 397.365C1344.29 393.882 1350.63 392.14 1358.43 392.14C1366.79 392.14 1373.41 394.091 1378.29 397.992C1383.3 401.754 1386.86 406.422 1388.95 411.995H1389.57C1391.25 409.069 1393.54 406.073 1396.47 403.008C1399.54 399.943 1403.3 397.365 1407.76 395.275C1412.21 393.185 1417.51 392.14 1423.64 392.14C1431.3 392.14 1437.5 393.882 1442.24 397.365C1447.12 400.709 1450.67 405.028 1452.9 410.323C1455.27 415.618 1456.45 421.121 1456.45 426.834V505H1420.71V437.284C1420.71 432.686 1419.53 428.854 1417.16 425.789C1414.79 422.724 1411.24 421.191 1406.5 421.191C1401.35 421.191 1397.58 422.933 1395.22 426.416C1392.99 429.899 1391.87 433.87 1391.87 438.329V505H1356.13V437.284C1356.13 432.825 1354.95 429.063 1352.58 425.998C1350.35 422.793 1346.8 421.191 1341.92 421.191C1336.77 421.191 1333 423.002 1330.64 426.625C1328.41 430.108 1327.29 434.01 1327.29 438.329V505H1291.55ZM1521.59 507.09C1511.69 507.09 1503.13 505.488 1495.88 502.283C1488.64 498.939 1482.57 494.55 1477.7 489.116C1472.96 483.543 1469.41 477.342 1467.04 470.515C1464.81 463.688 1463.69 456.651 1463.69 449.406C1463.69 442.439 1464.81 435.542 1467.04 428.715C1469.27 421.888 1472.68 415.757 1477.28 410.323C1481.88 404.75 1487.73 400.361 1494.84 397.156C1502.08 393.812 1510.65 392.14 1520.54 392.14C1531.13 392.14 1540.4 394.439 1548.34 399.037C1556.42 403.496 1562.69 410.114 1567.15 418.892C1571.75 427.531 1574.05 438.05 1574.05 450.451V458.811H1499.64C1500.06 464.524 1502.08 469.54 1505.7 473.859C1509.47 478.039 1514.76 480.129 1521.59 480.129C1526.74 480.129 1530.64 479.223 1533.29 477.412C1536.08 475.461 1537.96 473.511 1538.93 471.56C1539.91 469.609 1540.4 468.634 1540.4 468.634H1573.21C1573.21 468.634 1572.86 469.958 1572.17 472.605C1571.47 475.113 1570.15 478.318 1568.19 482.219C1566.24 485.981 1563.39 489.813 1559.63 493.714C1555.86 497.476 1550.85 500.681 1544.58 503.328C1538.45 505.836 1530.78 507.09 1521.59 507.09ZM1499.43 438.12H1539.77C1539.49 431.571 1537.47 426.625 1533.71 423.281C1530.09 419.937 1525.49 418.265 1519.92 418.265C1514.48 418.265 1509.81 419.937 1505.91 423.281C1502.15 426.625 1499.99 431.571 1499.43 438.12ZM1628.62 507.09C1620.54 507.09 1613.51 505.488 1607.52 502.283C1601.52 498.939 1596.51 494.55 1592.47 489.116C1588.43 483.543 1585.43 477.342 1583.48 470.515C1581.53 463.688 1580.55 456.721 1580.55 449.615C1580.55 442.509 1581.53 435.542 1583.48 428.715C1585.43 421.888 1588.43 415.757 1592.47 410.323C1596.51 404.75 1601.52 400.361 1607.52 397.156C1613.51 393.812 1620.54 392.14 1628.62 392.14C1635.87 392.14 1641.72 393.324 1646.18 395.693C1650.78 398.062 1654.19 400.5 1656.42 403.008C1658.79 405.377 1660.11 406.84 1660.39 407.397H1662.06V346.16H1697.8V505H1662.06V491.833H1660.39C1660.11 492.39 1658.79 493.923 1656.42 496.431C1654.19 498.939 1650.78 501.377 1646.18 503.746C1641.72 505.975 1635.87 507.09 1628.62 507.09ZM1639.91 478.457C1645.07 478.457 1649.32 477.064 1652.66 474.277C1656.14 471.351 1658.72 467.728 1660.39 463.409C1662.2 458.95 1663.11 454.352 1663.11 449.615C1663.11 444.878 1662.2 440.349 1660.39 436.03C1658.72 431.571 1656.14 427.949 1652.66 425.162C1649.32 422.236 1645.07 420.773 1639.91 420.773C1634.76 420.773 1630.44 422.236 1626.95 425.162C1623.47 427.949 1620.89 431.571 1619.22 436.03C1617.55 440.349 1616.71 444.878 1616.71 449.615C1616.71 454.352 1617.55 458.95 1619.22 463.409C1620.89 467.728 1623.47 471.351 1626.95 474.277C1630.44 477.064 1634.76 478.457 1639.91 478.457ZM1739.46 505L1791.5 350.34H1839.99L1892.03 505H1854.2L1845.22 476.785H1786.28L1777.29 505H1739.46ZM1796.31 445.853H1835.39L1815.75 385.034L1796.31 445.853ZM1940.43 392.14C1947.67 392.14 1953.52 393.324 1957.98 395.693C1962.58 398.062 1965.99 400.5 1968.22 403.008C1970.59 405.377 1971.92 406.84 1972.19 407.397H1973.87V394.23H2009.61V505H1973.87V491.833H1972.19C1971.92 492.39 1970.59 493.923 1968.22 496.431C1965.99 498.939 1962.58 501.377 1957.98 503.746C1953.52 505.975 1947.67 507.09 1940.43 507.09C1932.35 507.09 1925.31 505.488 1919.32 502.283C1913.33 498.939 1908.31 494.55 1904.27 489.116C1900.23 483.543 1897.23 477.342 1895.28 470.515C1893.33 463.688 1892.36 456.721 1892.36 449.615C1892.36 442.509 1893.33 435.542 1895.28 428.715C1897.23 421.888 1900.23 415.757 1904.27 410.323C1908.31 404.75 1913.33 400.361 1919.32 397.156C1925.31 393.812 1932.35 392.14 1940.43 392.14ZM1951.71 420.773C1946.56 420.773 1942.24 422.236 1938.75 425.162C1935.27 427.949 1932.69 431.571 1931.02 436.03C1929.35 440.349 1928.51 444.878 1928.51 449.615C1928.51 454.352 1929.35 458.95 1931.02 463.409C1932.69 467.728 1935.27 471.351 1938.75 474.277C1942.24 477.064 1946.56 478.457 1951.71 478.457C1956.87 478.457 1961.12 477.064 1964.46 474.277C1967.95 471.351 1970.52 467.728 1972.19 463.409C1974.01 458.95 1974.91 454.352 1974.91 449.615C1974.91 444.878 1974.01 440.349 1972.19 436.03C1970.52 431.571 1967.95 427.949 1964.46 425.162C1961.12 422.236 1956.87 420.773 1951.71 420.773ZM2068.35 507.09C2058.88 507.09 2051.01 505.836 2044.74 503.328C2038.61 500.82 2033.73 497.685 2030.11 493.923C2026.48 490.161 2023.77 486.399 2021.95 482.637C2020.14 478.875 2018.96 475.74 2018.4 473.232C2017.84 470.724 2017.57 469.47 2017.57 469.47H2050.17C2050.17 469.47 2050.38 470.097 2050.8 471.351C2051.35 472.466 2052.26 473.859 2053.51 475.531C2054.91 477.064 2056.93 478.457 2059.57 479.711C2062.22 480.826 2065.78 481.383 2070.23 481.383C2075.67 481.383 2079.22 480.338 2080.89 478.248C2082.56 476.158 2083.4 474.277 2083.4 472.605C2083.4 468.425 2079.85 465.638 2072.74 464.245L2057.48 461.528C2050.8 460.413 2044.53 458.602 2038.67 456.094C2032.82 453.586 2028.09 450.103 2024.46 445.644C2020.84 441.185 2019.03 435.403 2019.03 428.297C2019.03 421.47 2020.77 415.339 2024.25 409.905C2027.88 404.471 2033.03 400.152 2039.72 396.947C2046.55 393.742 2054.77 392.14 2064.38 392.14C2073.16 392.14 2080.47 393.324 2086.33 395.693C2092.18 398.062 2096.85 400.988 2100.33 404.471C2103.81 407.954 2106.39 411.438 2108.06 414.921C2109.73 418.404 2110.85 421.33 2111.41 423.699C2111.96 426.068 2112.24 427.252 2112.24 427.252H2080.68C2080.68 427.252 2080.27 426.416 2079.43 424.744C2078.59 423.072 2076.92 421.4 2074.41 419.728C2072.05 418.056 2068.42 417.22 2063.55 417.22C2058.67 417.22 2055.33 418.195 2053.51 420.146C2051.7 421.957 2050.8 423.838 2050.8 425.789C2050.8 428.297 2051.98 430.178 2054.35 431.432C2056.72 432.547 2059.71 433.452 2063.34 434.149L2077.34 436.866C2088.35 438.956 2097.33 442.648 2104.3 447.943C2111.41 453.098 2114.96 460.692 2114.96 470.724C2114.96 481.035 2110.92 489.673 2102.84 496.64C2094.9 503.607 2083.4 507.09 2068.35 507.09ZM2141.9 381.063C2135.91 381.063 2130.96 379.112 2127.06 375.211C2123.16 371.31 2121.21 366.712 2121.21 361.417C2121.21 355.844 2123.16 351.106 2127.06 347.205C2130.96 343.304 2135.91 341.353 2141.9 341.353C2147.89 341.353 2152.84 343.304 2156.74 347.205C2160.64 351.106 2162.59 355.844 2162.59 361.417C2162.59 366.712 2160.64 371.31 2156.74 375.211C2152.84 379.112 2147.89 381.063 2141.9 381.063ZM2123.93 505V394.23H2159.66V505H2123.93ZM2172.55 505V394.23H2208.29V409.069H2209.55C2212.05 404.61 2215.68 400.709 2220.41 397.365C2225.29 393.882 2231.63 392.14 2239.43 392.14C2247.79 392.14 2254.41 394.091 2259.29 397.992C2264.3 401.754 2267.86 406.422 2269.95 411.995H2270.57C2272.25 409.069 2274.54 406.073 2277.47 403.008C2280.54 399.943 2284.3 397.365 2288.76 395.275C2293.22 393.185 2298.51 392.14 2304.64 392.14C2312.3 392.14 2318.5 393.882 2323.24 397.365C2328.12 400.709 2331.67 405.028 2333.9 410.323C2336.27 415.618 2337.45 421.121 2337.45 426.834V505H2301.71V437.284C2301.71 432.686 2300.53 428.854 2298.16 425.789C2295.79 422.724 2292.24 421.191 2287.5 421.191C2282.35 421.191 2278.59 422.933 2276.22 426.416C2273.99 429.899 2272.87 433.87 2272.87 438.329V505H2237.13V437.284C2237.13 432.825 2235.95 429.063 2233.58 425.998C2231.35 422.793 2227.8 421.191 2222.92 421.191C2217.77 421.191 2214 423.002 2211.64 426.625C2209.41 430.108 2208.29 434.01 2208.29 438.329V505H2172.55Z" fill="black"/>
<path d="M377 678C515.071 678 627 566.071 627 428C627 289.929 515.071 178 377 178C238.929 178 127 289.929 127 428C127 566.071 238.929 678 377 678Z" fill="black"/>
<path d="M267.459 538L342.159 316H411.759L486.459 538H432.159L419.259 497.5H334.659L321.759 538H267.459ZM349.059 453.1H405.159L376.959 365.8L349.059 453.1Z" fill="white"/>
</svg>
